:version 1.10
:name ASF
:units
  mass 1
  length 1
  angle deg
:documentation
  ASF file generated by Kaydara
:root
  axis xyz
  order  tx ty tz rx ry rz
  position 0 0 0
  orientation 0 0 0
:bonedata
  begin
    id 1
    name RightUpLegDummy
    direction -1 2.30186e-007 8.31532e-007
    length 4.46685
    axis 0 0 0 xyz
  end
  begin
    id 2
    name RightUpLeg
    direction -2.30187e-007 -1 1.24343e-010
    length 16.4045
    axis -3.49089 -0.000906625 0.000286804 xyz
    dof rx ry rz
  end
  begin
    id 3
    name RightLeg
    direction -2.30181e-007 -1 -4.17157e-009
    length 17.5097
    axis 3.68512 0.0193738 -0.131023 xyz
    dof rx ry rz
  end
  begin
    id 4
    name RightFoot
    direction 8.31421e-007 -4.51202e-011 1
    length 6.49508
    axis 4.81691e-005 -0.120479 -0.188788 xyz
    dof rx ry rz
  end
  begin
    id 5
    name RightToes
    direction 0.00124746 -0.014064 0.9999
    length 3.85082
    axis 0.000481921 0.542163 -0.142578 xyz
    dof rx ry rz
  end
  begin
    id 6
    name SpineDummy
    direction 0.0717043 0.9409 -0.331007
    length 10.0032
    axis 0 0 0 xyz
  end
  begin
    id 7
    name Spine
    direction 2.30186e-007 1 4.58806e-011
    length 9.84055
    axis -0.001389 0.000121418 2.40972e-006 xyz
    dof rx ry rz
  end
  begin
    id 8
    name Spine1
    direction 0 0 0
    length 0
    axis -0.001389 0.000121451 1.30017e-006 xyz
    dof rx ry rz
  end
  begin
    id 9
    name HEadDummy
    direction -0.00347485 0.950688 -0.310128
    length 8.00997
    axis -0.001389 0.000121451 1.30017e-006 xyz
  end
  begin
    id 10
    name HEad
    direction -0.0222688 0.980941 0.193023
    length 5.12695
    axis -0.001389 0.000121451 1.30017e-006 xyz
    dof rx ry rz
  end
  begin
    id 11
    name LeftShoulder1Dummy
    direction 0.988871 0.146793 -0.0242004
    length 3.5792
    axis -0.001389 0.000121451 1.30017e-006 xyz
  end
  begin
    id 12
    name LeftShoulder1
    direction 0.993832 0.108932 0.020779
    length 4.16823
    axis -0.001389 0.000121451 1.30017e-006 xyz
    dof rx ry rz
  end
  begin
    id 13
    name LeftArm
    direction 1 3.44807e-006 -8.31404e-007
    length 9.91437
    axis -23.1894 0.134784 0.967509 xyz
    dof rx ry rz
  end
  begin
    id 14
    name LeftForeArm
    direction 1 3.44842e-006 -8.31581e-007
    length 9.08575
    axis -9.91835 -0.06569 -0.177793 xyz
    dof rx ry rz
  end
  begin
    id 15
    name LeftHand
    direction 0.992938 -0.0411636 0.11126
    length 5.32135
    axis -0.00960232 -0.00340091 0.185173 xyz
    dof rx ry rz
  end
  begin
    id 16
    name RightShoulderDummy
    direction -0.988871 0.146793 -0.0241962
    length 3.5792
    axis -0.001389 0.000121451 1.30017e-006 xyz
  end
  begin
    id 17
    name RightShoulder
    direction -0.993832 0.108933 0.0207785
    length 4.16823
    axis 0.215806 0.000203643 -0.0068026 xyz
    dof rx ry rz
  end
  begin
    id 18
    name RightArm
    direction -1 3.90912e-006 8.31284e-007
    length 9.91437
    axis -23.2009 -0.134239 -0.964101 xyz
    dof rx ry rz
  end
  begin
    id 19
    name RightForeArm
    direction -1 3.90882e-006 8.31502e-007
    length 9.08575
    axis -9.92322 0.0658061 0.178867 xyz
    dof rx ry rz
  end
  begin
    id 20
    name RightHand
    direction -0.992843 -0.0414603 0.112003
    length 5.28593
    axis -0.00960638 0.00330671 -0.185228 xyz
    dof rx ry rz
  end
  begin
    id 21
    name LeftUpLegDummy
    direction 1 -2.30186e-007 -8.31532e-007
    length 4.46685
    axis 0 0 0 xyz
  end
  begin
    id 22
    name LeftUpLeg
    direction -2.30187e-007 -1 6.00931e-010
    length 16.4045
    axis -3.48766 0.00143442 -0.000524262 xyz
    dof rx ry rz
  end
  begin
    id 23
    name LeftLeg
    direction -2.30187e-007 -1 1.6669e-009
    length 17.5097
    axis 3.68178 -0.00654042 -0.000285133 xyz
    dof rx ry rz
  end
  begin
    id 24
    name LeftFoot
    direction 8.31532e-007 -4.54478e-011 1
    length 6.49508
    axis 1.87233e-006 4.66016e-005 -8.6538e-006 xyz
    dof rx ry rz
  end
  begin
    id 25
    name LeftToes
    direction 0.00818058 -0.00485161 0.999955
    length 3.85048
    axis 1.06247e-005 4.65869e-005 -8.65513e-006 xyz
    dof rx ry rz
  end
:hierarchy
  begin
    root RightUpLegDummy SpineDummy LeftUpLegDummy
    RightUpLegDummy RightUpLeg
    RightUpLeg RightLeg
    RightLeg RightFoot
    RightFoot RightToes
    SpineDummy Spine
    Spine Spine1
    Spine1 HEadDummy LeftShoulder1Dummy RightShoulderDummy
    HEadDummy HEad
    LeftShoulder1Dummy LeftShoulder1
    LeftShoulder1 LeftArm
    LeftArm LeftForeArm
    LeftForeArm LeftHand
    RightShoulderDummy RightShoulder
    RightShoulder RightArm
    RightArm RightForeArm
    RightForeArm RightHand
    LeftUpLegDummy LeftUpLeg
    LeftUpLeg LeftLeg
    LeftLeg LeftFoot
    LeftFoot LeftToes
  end

:SAMPLES-PER-SECOND 30
:FULLY-SPECIFIED
:DEGREES
16
root  -74.5334 31.8962 -45.939 24.7244 40.2864 0.570794
RightUpLeg  -49.077 -14.5701 -6.02673
RightLeg  30.0954 4.03249 1.99179
RightFoot  7.2676 -0.0387484 0.987018
RightToes  -51.8045 -0.318962 -0.379551
Spine  12.1556 1.64897 2.61975
Spine1  22.5545 4.11752 0.859749
HEad  8.3964 7.49298 -7.3194
LeftShoulder1  0 -2.42657e-020 -4.95415e-022
LeftArm  -39.0194 -3.6899 -85.9341
LeftForeArm  42.0419 -23.0695 -4.28659
LeftHand  0.769669 -11.4026 -8.07265
RightShoulder  0 2.42657e-020 1.07489e-018
RightArm  -42.1744 11.0478 78.3892
RightForeArm  4.37786 39.2036 8.26151
RightHand  2.22226 18.1877 14.1929
LeftUpLeg  -27.7438 19.2977 16.4547
LeftLeg  38.7887 13.0693 9.02762
LeftFoot  16.8325 -0.604352 4.08296
LeftToes  -26.9717 8.63562e-007 1.17448e-007
17
root  -74.334 32.1986 -45.2233 23.7888 37.7064 0.367585
RightUpLeg  -46.5812 -12.6357 -6.128
RightLeg  27.912 4.8263 2.16203
RightFoot  7.19657 -0.0385737 0.99085
RightToes  -52.2596 -0.323054 -0.379335
Spine  11.8406 1.29196 2.48101
Spine1  22.1903 3.08393 1.40669
HEad  8.34435 8.56546 -7.65529
LeftShoulder1  0 -2.42657e-020 -4.95415e-022
LeftArm  -39.9079 -1.92824 -86.7904
LeftForeArm  42.4763 -23.4901 -4.37412
LeftHand  0.678382 -11.2827 -7.23383
RightShoulder  0 2.42657e-020 1.07489e-018
RightArm  -40.4583 8.92398 77.9693
RightForeArm  6.77275 47.9663 11.2882
RightHand  1.95212 17.5585 12.9652
LeftUpLeg  -27.1901 16.5515 15.812
LeftLeg  43.538 10.7129 8.81529
LeftFoot  17.2925 -0.567742 3.73234
LeftToes  -26.5513 8.63562e-007 1.17448e-007
18
root  -74.0564 32.4172 -44.6194 23.1048 35.8463 0.470543
RightUpLeg  -44.6217 -13.245 -5.54856
RightLeg  26.5272 6.89649 2.89123
RightFoot  6.88684 -0.0469092 1.15701
RightToes  -53.5088 -0.334355 -0.379089
Spine  11.7155 0.834162 2.4017
Spine1  21.9893 1.8094 1.91894
HEad  8.42709 9.5373 -7.69116
LeftShoulder1  0 -2.42657e-020 -4.95415e-022
LeftArm  -40.2003 -0.723348 -87.6543
LeftForeArm  41.6187 -24.5083 -4.59098
LeftHand  0.57841 -11.2391 -6.2471
RightShoulder  0 2.42657e-020 1.07489e-018
RightArm  -39.6592 6.81216 78.6696
RightForeArm  15.7346 61.4808 19.0118
RightHand  1.37113 17.0447 9.50465
LeftUpLeg  -28.3927 12.9255 14.659
LeftLeg  49.2098 5.20274 5.27009
LeftFoot  14.9209 -0.197944 1.5115
LeftToes  -26.5213 8.63562e-007 1.17448e-007
19
root  -73.728 32.5087 -44.0299 22.618 34.2243 0.667002
RightUpLeg  -43.5847 -13.8524 -5.31513
RightLeg  26.8396 8.46235 3.59728
RightFoot  5.97434 -0.0435325 1.21162
RightToes  -53.8464 -0.337426 -0.378817
Spine  11.8628 0.799949 2.49218
Spine1  22.1829 1.73042 1.88383
HEad  9.48347 10.429 -7.7369
LeftShoulder1  0 -2.42657e-020 -4.95415e-022
LeftArm  -40.4971 -0.816737 -88.5717
LeftForeArm  40.7841 -25.0648 -4.71148
LeftHand  0.485837 -11.1033 -5.3685
RightShoulder  0 2.42657e-020 1.07489e-018
RightArm  -39.4363 6.02997 79.3551
RightForeArm  38.856 73.438 36.6864
RightHand  0.934079 16.3567 6.86534
LeftUpLeg  -30.4925 10.8004 13.0379
LeftLeg  54.2538 1.34934 1.63188
LeftFoot  11.0132 -0.00324685 0.0336702
LeftToes  -24.4133 8.63562e-007 1.17448e-007
20
root  -73.3692 32.5563 -43.4129 22.0638 32.9498 0.836115
RightUpLeg  -42.3532 -13.0707 -5.89478
RightLeg  27.5128 8.67971 3.80868
RightFoot  5.02435 -0.0328049 1.12509
RightToes  -53.8225 -0.337209 -0.378528
Spine  12.1113 0.962989 2.50594
Spine1  22.5616 2.25694 1.5272
HEad  10.4613 11.2569 -7.61778
LeftShoulder1  0 -2.42657e-020 -4.95415e-022
LeftArm  -40.9224 -1.56097 -89.2554
LeftForeArm  40.5761 -25.4689 -4.79918
LeftHand  0.434037 -10.9846 -4.8847
RightShoulder  0 2.42657e-020 1.07489e-018
RightArm  -38.6262 7.0508 80.0018
RightForeArm  81.8349 79.4482 73.0831
RightHand  0.298795 16.313 2.45545
LeftUpLeg  -32.4353 10.8723 11.4511
LeftLeg  56.6337 1.39985 1.84426
LeftFoot  9.31943 -0.00568077 0.0696876
LeftToes  -29.4145 8.63562e-007 1.17448e-007
21
root  -73.0048 32.5922 -42.7828 21.4953 32.3093 1.14272
RightUpLeg  -41.0314 -12.745 -6.54661
RightLeg  28.5696 8.70324 4.00983
RightFoot  3.89897 -0.021653 1.0135
RightToes  -53.4648 -0.333955 -0.378228
Spine  12.352 1.02631 2.33008
Spine1  22.8631 2.62567 0.899729
HEad  11.5135 12.2471 -7.39001
LeftShoulder1  0 -2.42657e-020 -4.95415e-022
LeftArm  -40.9973 -2.27777 -89.3954
LeftForeArm  40.1188 -25.9718 -4.90942
LeftHand  0.378342 -10.8581 -4.35201
RightShoulder  0 2.42657e-020 1.07489e-018
RightArm  -36.1329 9.40764 80.4948
RightForeArm  121.067 79.4527 106.478
RightHand  -0.120805 16.0259 -0.48833
LeftUpLeg  -34.4801 11.1035 10.5035
LeftLeg  56.4866 2.37713 3.11903
LeftFoot  6.21798 -0.00886529 0.163209
LeftToes  -27.6113 8.63562e-007 1.17448e-007
